<?xml version="1.0" encoding="UTF-8"?>
<svg version="1.1" xmlns="http://www.w3.org/2000/svg" width="1024" height="1024">
<path d="M0 0 C337.92 0 675.84 0 1024 0 C1024 337.92 1024 675.84 1024 1024 C686.08 1024 348.16 1024 0 1024 C0 686.08 0 348.16 0 0 Z " fill="#FEFEFE" transform="translate(0,0)"/>
<path d="M0 0 C1.92512904 0.00502475 3.85025936 0.00958594 5.77539062 0.01367188 C10.45445884 0.02460085 15.13346517 0.0418118 19.8125 0.0625 C19.1525 1.3825 18.4925 2.7025 17.8125 4.0625 C16.17390015 4.08437378 16.17390015 4.08437378 14.50219727 4.10668945 C10.36241477 4.16564173 6.22312275 4.24284586 2.08374023 4.32495117 C0.30843192 4.35775317 -1.46696953 4.38591631 -3.24243164 4.40893555 C-38.41479963 4.87683855 -72.89548771 13.8158352 -99.1875 38.0625 C-99.86167969 38.65546875 -100.53585937 39.2484375 -101.23046875 39.859375 C-115.19388748 52.76834792 -125.34917892 74.27567677 -126.29785156 93.2722168 C-127.01480365 122.59738006 -120.02389362 145.22042658 -100.1875 167.0625 C-99.14335937 168.23232422 -99.14335937 168.23232422 -98.078125 169.42578125 C-64.75876958 204.7468809 -13.3320989 222.59592792 30.63867188 240.46850586 C45.44494951 246.4869232 60.17030619 252.65301314 74.8125 259.0625 C75.98200195 259.57055176 77.15150391 260.07860352 78.35644531 260.60205078 C103.64576966 271.60990726 128.05692052 284.04547816 151.8125 298.0625 C152.75609375 298.61405762 153.6996875 299.16561523 154.671875 299.73388672 C174.93523604 311.61113785 194.79475366 324.70747669 209.8125 343.0625 C210.7382126 344.15240207 211.66400068 345.24224002 212.58984375 346.33203125 C234.71928239 372.75645607 245.14246364 405.62539338 242.8125 440.0625 C239.07213973 479.41001754 219.9366716 516.24774083 189.53173828 541.6796875 C157.86867004 567.14683015 118.88315068 581.12612465 78.9375 586.75 C78.19216003 586.8567807 77.44682007 586.9635614 76.67889404 587.07357788 C65.7197211 588.63659978 54.8890445 589.92181002 43.8125 590.0625 C42.8225 590.08683105 41.8325 590.11116211 40.8125 590.13623047 C22.93697469 590.560458 5.52652472 589.46454552 -12.1875 587.0625 C-13.05584473 586.94503418 -13.92418945 586.82756836 -14.81884766 586.70654297 C-39.6163604 583.22343292 -63.69668585 575.88470964 -87.41160583 568.04576111 C-125.83962337 553.07732192 -125.83962337 553.07732192 -165.1875 557.0625 C-174.40793098 562.34098526 -179.87540238 570.94401439 -184.6328125 580.19140625 C-185.14585937 580.80886719 -185.65890625 581.42632813 -186.1875 582.0625 C-187.8375 582.0625 -189.4875 582.0625 -191.1875 582.0625 C-191.1875 520.3525 -191.1875 458.6425 -191.1875 395.0625 C-189.8675 395.3925 -188.5475 395.7225 -187.1875 396.0625 C-186.07609979 398.46632541 -185.27597596 400.6381683 -184.5234375 403.15625 C-184.28999634 403.88626221 -184.05655518 404.61627441 -183.81604004 405.3684082 C-183.31380164 406.94179514 -182.81855163 408.51742624 -182.32952881 410.0949707 C-181.04021458 414.24269057 -179.69072491 418.37071501 -178.34375 422.5 C-178.07593719 423.32415405 -177.80812439 424.14830811 -177.53219604 424.99743652 C-165.47599984 461.86679067 -147.05906525 497.65102237 -119.68505859 525.52978516 C-118.14117696 527.10991051 -116.6269355 528.7151561 -115.11328125 530.32421875 C-90.36003127 556.27811452 -57.24103969 572.08667548 -22.5625 579.875 C-21.27811035 580.16745605 -21.27811035 580.16745605 -19.96777344 580.46582031 C-4.70278754 583.67741475 10.75676375 584.39691327 26.3112793 584.32324219 C29.00917798 584.31246333 31.70641731 584.32324963 34.40429688 584.3359375 C45.05074222 584.34443029 55.28255053 583.64708573 65.8125 582.0625 C67.48405951 581.84650263 69.15588713 581.63255619 70.828125 581.421875 C93.64783455 578.25537861 116.89128493 571.04533403 134.8125 556.0625 C136.06546875 555.05123047 136.06546875 555.05123047 137.34375 554.01953125 C155.04156579 539.02554843 166.11849733 517.55459614 170.8125 495.0625 C171.0909375 493.82886719 171.369375 492.59523438 171.65625 491.32421875 C176.87489523 467.16790139 174.26840763 440.6494617 161.10546875 419.41015625 C157.33115945 413.69005424 152.67291603 408.86257984 147.8125 404.0625 C146.97074219 403.22203125 146.12898438 402.3815625 145.26171875 401.515625 C132.09160659 388.96504771 116.69958344 379.94912088 100.66845703 371.55810547 C97.85395199 370.08420755 95.04940163 368.59272093 92.24609375 367.09765625 C55.1688567 347.41879769 16.5540499 331.13083497 -22.1875 315.0625 C-25.06367558 317.93867558 -25.97255745 321.48839506 -27.328125 325.24609375 C-27.64206711 326.10187515 -27.95600922 326.95765656 -28.27946472 327.83937073 C-28.96944888 329.72187443 -29.65692262 331.60529964 -30.34225464 333.48950195 C-31.85319805 337.64262815 -33.37671806 341.79110515 -34.89964294 345.93984985 C-35.71968134 348.17383252 -36.53913455 350.40803007 -37.35804749 352.64242554 C-42.06163144 365.4685463 -46.84359288 378.26523617 -51.625 391.0625 C-53.48115047 396.03229779 -55.33666871 401.00233101 -57.19140625 405.97265625 C-57.42817329 406.60709278 -57.66494034 407.24152931 -57.90888214 407.89519119 C-61.68866403 418.02519234 -65.45155835 428.16139374 -69.20704079 438.30042648 C-70.08818263 440.67910948 -70.96965537 443.05766959 -71.85124207 445.43618774 C-72.43606681 447.0140987 -73.02089043 448.59201007 -73.60571289 450.16992188 C-73.89400184 450.94773199 -74.18229078 451.72554211 -74.47931576 452.52692223 C-75.89764889 456.35424421 -77.31494656 460.18194366 -78.72994995 464.01049805 C-84.68069486 480.11035865 -90.67796802 496.17765721 -97.1875 512.0625 C-98.1775 511.7325 -99.1675 511.4025 -100.1875 511.0625 C-99.61774935 506.03592607 -98.50366666 501.69725252 -96.73046875 496.96484375 C-96.34884079 495.93688187 -96.34884079 495.93688187 -95.95950317 494.88815308 C-95.10448424 492.5896271 -94.23964656 490.29491987 -93.375 488 C-92.75278183 486.33254296 -92.13130371 484.66480961 -91.51049805 482.99682617 C-90.14650077 479.33427991 -88.77888375 475.673111 -87.40917969 472.01269531 C-85.08385364 465.79244169 -82.77868013 459.56481172 -80.4765625 453.3359375 C-72.57432596 431.95847941 -64.64597444 410.59087964 -56.68310547 389.2359314 C-54.35090999 382.98030792 -52.02097903 376.72384059 -49.69116211 370.46733093 C-47.69851425 365.11677158 -45.70417639 359.76685123 -43.70703125 354.41796875 C-41.68265965 348.99543972 -39.6631781 343.57111222 -37.64706421 338.14550781 C-36.88792609 336.10514362 -36.12706674 334.06541893 -35.3644104 332.02636719 C-34.31785219 329.22756687 -33.27732953 326.42659537 -32.23828125 323.625 C-31.77107666 322.38206177 -31.77107666 322.38206177 -31.29443359 321.11401367 C-29.66192935 316.70594956 -29.66192935 316.70594956 -29.1875 312.0625 C-30.12207031 311.6406543 -31.05664062 311.21880859 -32.01953125 310.78417969 C-153.71715147 255.78732122 -153.71715147 255.78732122 -176.1875 199.0625 C-181.74200178 183.11688207 -184.6144296 167.53021791 -184.5625 150.625 C-184.56162384 149.92484772 -184.56074768 149.22469543 -184.55984497 148.50332642 C-184.42372803 115.37321763 -172.89441725 86.68369666 -152.1875 61.0625 C-151.51460938 60.2271875 -150.84171875 59.391875 -150.1484375 58.53125 C-146.23218942 53.88182306 -141.85361661 49.94404833 -137.1875 46.0625 C-136.38699219 45.37414062 -135.58648437 44.68578125 -134.76171875 43.9765625 C-105.67996727 19.41863903 -69.67590022 5.83672708 -32.1875 1.0625 C-31.43637939 0.96316162 -30.68525879 0.86382324 -29.91137695 0.76147461 C-19.98502787 -0.35037837 -9.97236091 -0.04542631 0 0 Z " fill="#020202" transform="translate(465.1875,155.9375)"/>
<path d="M0 0 C2.5625 0.5 2.5625 0.5 4.05908203 2.62939453 C5.65512384 5.67685468 6.9401889 8.72014911 8.1796875 11.9296875 C8.42845139 12.57042709 8.67721527 13.21116669 8.93351746 13.87132263 C9.77286947 16.03743308 10.60524427 18.20615401 11.4375 20.375 C12.04847223 21.95738141 12.65972847 23.53965319 13.27124023 25.12182617 C15.37705175 30.57787846 17.47078875 36.03852895 19.5625 41.5 C19.94871521 42.50826843 20.33493042 43.51653687 20.73284912 44.55535889 C25.97547101 58.24600935 31.20180434 71.94285869 36.42295837 85.64170837 C39.61741041 94.02274234 42.81526571 102.40247004 46.015625 110.78125 C46.46080475 111.94677902 46.9059845 113.11230804 47.36465454 114.31315613 C48.25760079 116.6509431 49.15055525 118.98872693 50.04351807 121.32650757 C56.29647685 137.69756485 62.54391106 154.07070176 68.77874756 170.44866943 C74.95440773 186.6711775 81.15187147 202.88521035 87.36386108 219.09384155 C94.63709216 238.07182469 101.88823269 257.05820408 109.1315918 276.04760742 C109.54587936 277.13308365 109.96016693 278.21855988 110.38700867 279.33692932 C111.20526063 281.48178362 112.0225888 283.6269906 112.83894348 285.77256775 C115.01176094 291.47528978 117.21162691 297.16603189 119.4453125 302.84521484 C119.91445068 304.04458176 120.38358887 305.24394867 120.86694336 306.47966003 C121.77283527 308.79313246 122.68488322 311.104206 123.60375977 313.41255188 C124.00651123 314.44389755 124.4092627 315.47524323 124.82421875 316.5378418 C125.18475342 317.44994919 125.54528809 318.36205658 125.91674805 319.30180359 C126.5625 321.5 126.5625 321.5 125.5625 323.5 C125.11559814 323.0373877 124.66869629 322.57477539 124.20825195 322.09814453 C115.15122767 312.76638394 106.19660637 304.01351848 95.5625 296.5 C93.99628906 295.36884766 93.99628906 295.36884766 92.3984375 294.21484375 C73.12552169 280.54561027 52.33846884 269.1700434 30.1015625 261.15625 C28.93802246 260.71925781 28.93802246 260.71925781 27.75097656 260.2734375 C25.32272648 259.3786266 25.32272648 259.3786266 21.7734375 258.53125 C17.04839154 255.54216983 16.1237582 251.79218954 14.31835938 246.62896729 C13.4622141 244.21753292 12.55505775 241.82890427 11.640625 239.43896484 C9.68665758 234.32833444 7.75897705 229.20822238 5.83734131 224.08535767 C3.62853153 218.19817688 1.41198603 212.31391104 -0.8046875 206.4296875 C-1.26455048 205.20874893 -1.72441345 203.98781036 -2.19821167 202.72987366 C-7.28185514 189.24301089 -12.41787269 175.77620647 -17.5625 162.3125 C-17.98708496 161.20087494 -18.41166992 160.08924988 -18.84912109 158.94393921 C-20.08901228 155.69810961 -21.32955939 152.45253146 -22.5703125 149.20703125 C-22.9654303 148.17279526 -23.3605481 147.13855927 -23.76763916 146.07298279 C-25.92309687 140.43682486 -28.09222731 134.80626237 -30.27636719 129.18115234 C-30.97317093 127.38250984 -30.97317093 127.38250984 -31.68405151 125.54753113 C-32.58137522 123.23271647 -33.48143741 120.91896105 -34.384552 118.60639954 C-34.78471527 117.57315048 -35.18487854 116.53990143 -35.59716797 115.4753418 C-36.13130814 114.10360054 -36.13130814 114.10360054 -36.67623901 112.70414734 C-37.4375 110.5 -37.4375 110.5 -37.4375 108.5 C-40.76246128 110.16248064 -41.22228376 113.90660784 -42.39453125 117.25390625 C-42.68978195 118.07699783 -42.98503265 118.90008942 -43.28923035 119.74812317 C-43.93804699 121.55805495 -44.58375268 123.36910409 -45.22680664 125.18109131 C-46.99546126 130.161789 -48.78899682 135.13350576 -50.58203125 140.10546875 C-50.96553741 141.17009338 -51.34904358 142.23471802 -51.74417114 143.331604 C-56.94962745 157.74289178 -62.3680217 172.07488313 -67.7706604 186.41311646 C-73.4209549 201.40865153 -79.00323057 216.4246844 -84.4375 231.5 C-86.0875 231.17 -87.7375 230.84 -89.4375 230.5 C-86.70025253 220.68400999 -83.07528048 211.22086701 -79.5 201.6875 C-78.79329792 199.79660894 -78.0867592 197.90565682 -77.38037109 196.01464844 C-75.072121 189.84082788 -72.75553389 183.67015264 -70.4375 177.5 C-70.03992493 176.441297 -69.64234985 175.38259399 -69.23272705 174.29180908 C-59.57632062 148.58173023 -49.84698412 122.90058071 -40.00167847 97.26223755 C-34.81716001 83.7590519 -29.69040655 70.23580932 -24.625 56.6875 C-20.10396165 44.60098538 -15.57656892 32.51707982 -10.98745728 20.45620728 C-10.41840074 18.95929521 -9.85064371 17.46188841 -9.28427124 15.96395874 C-8.50956087 13.9159718 -7.7300869 11.86986429 -6.94921875 9.82421875 C-6.51053467 8.67010498 -6.07185059 7.51599121 -5.61987305 6.3269043 C-3.25266676 0.66721369 -3.25266676 0.66721369 0 0 Z " fill="#020202" transform="translate(563.4375,134.5)"/>
<path d="M0 0 C2.14293681 2.14293681 2.69863222 3.46731526 3.7331543 6.27392578 C4.06549576 7.16709503 4.39783722 8.06026428 4.74024963 8.98049927 C5.09795944 9.95888763 5.45566925 10.937276 5.82421875 11.9453125 C6.20291611 12.96728729 6.58161346 13.98926208 6.9717865 15.04220581 C8.21536458 18.40130965 9.45138075 21.76314506 10.6875 25.125 C11.54089574 27.43381863 12.39490375 29.74241105 13.24951172 32.05078125 C14.55338348 35.57291161 15.85684518 39.09518761 17.15826416 42.6182251 C21.27470366 53.76023977 25.4437754 64.88216777 29.625 76 C30.56371251 78.4964599 31.50224867 80.99298507 32.44007874 83.48977661 C32.98783315 84.94804636 33.5360854 86.40612926 34.08494568 87.86398315 C35.09940913 90.56454306 36.08762164 93.26286491 37 96 C60.76 96.33 84.52 96.66 109 97 C109 97.99 109 98.98 109 100 C66.1 100 23.2 100 -21 100 C-17.72151899 90.16455696 -17.72151899 90.16455696 -16.1328125 85.609375 C-6.4247677 57.45748546 -2.04338488 29.64811849 0 0 Z " fill="#040404" transform="translate(746,621)"/>
<path d="M0 0 C4.29349286 2.27302563 7.67587177 4.70930173 10 9 C10.77388486 14.6146136 10.742695 19.37178404 8.375 24.5625 C4.67689023 28.35792845 1.28100532 30.12507411 -4 30.4375 C-8.23419303 30.2674846 -10.74108092 28.72839737 -14 26 C-17.44890821 22.07538031 -18.42128141 18.44806582 -18.34375 13.1953125 C-17.70645183 9.12529462 -15.67786189 6.06544716 -13 3 C-8.68842077 0.00064054 -5.20039771 -0.65004971 0 0 Z " fill="#101010" transform="translate(353,834)"/>
<path d="M0 0 C1.32 0 2.64 0 4 0 C5.71128044 3.96833494 7.42021673 7.93766829 9.12695312 11.90795898 C9.70833454 13.25947569 10.29036447 14.61071361 10.87304688 15.96166992 C11.70872461 17.89950427 12.54209244 19.83831743 13.375 21.77734375 C13.87773438 22.94515381 14.38046875 24.11296387 14.8984375 25.31616211 C16 28 16 28 16 29 C14.02 29 12.04 29 10 29 C9.34 27.35 8.68 25.7 8 24 C3.71 23.67 -0.58 23.34 -5 23 C-5.33 24.65 -5.66 26.3 -6 28 C-7 29 -7 29 -9.5625 29.0625 C-10.366875 29.041875 -11.17125 29.02125 -12 29 C-9.91932667 22.23703646 -7.26750264 15.86121387 -4.3125 9.4375 C-3.89677734 8.52419922 -3.48105469 7.61089844 -3.05273438 6.66992188 C-2.03917098 4.44474248 -1.02154784 2.22152219 0 0 Z " fill="#0F0F0F" transform="translate(544,835)"/>
<path d="M0 0 C1.32 0 2.64 0 4 0 C5.71371692 3.80648736 7.42258281 7.61510294 9.12695312 11.42578125 C9.70764887 12.72227868 10.28967458 14.01818127 10.87304688 15.31347656 C11.71052399 17.17358729 12.54322138 19.03577294 13.375 20.8984375 C14.12910156 22.57945557 14.12910156 22.57945557 14.8984375 24.29443359 C16 27 16 27 16 29 C14.35 29 12.7 29 11 29 C10.34 27.02 9.68 25.04 9 23 C2.565 23.495 2.565 23.495 -4 24 C-4.99 26.475 -4.99 26.475 -6 29 C-7.65 29 -9.3 29 -11 29 C-10.35952645 25.16022316 -9.22822779 21.84403286 -7.71484375 18.26171875 C-7.04291992 16.66166992 -7.04291992 16.66166992 -6.35742188 15.02929688 C-5.88884766 13.92650391 -5.42027344 12.82371094 -4.9375 11.6875 C-4.46505859 10.56537109 -3.99261719 9.44324219 -3.50585938 8.28710938 C-2.34138677 5.52295723 -1.17263728 2.760696 0 0 Z " fill="#0E0E0D" transform="translate(680,835)"/>
<path d="M0 0 C2.63016161 2.1727422 4.47336894 3.94673788 6 7 C6.12339449 11.56559624 5.83352347 14.99486876 2.875 18.5625 C-0.77439606 20.38719803 -2.96443968 20.57650862 -7 20 C-9.75329021 18.20437595 -11.52627461 16.94745078 -13 14 C-13.54724071 8.30869663 -12.59333707 5.43882815 -9 1 C-5.86128812 -0.56935594 -3.46144178 -0.35201103 0 0 Z " fill="#F7F7F7" transform="translate(353,839)"/>
<path d="M0 0 C5.61 0 11.22 0 17 0 C17 1.65 17 3.3 17 5 C12.71 5 8.42 5 4 5 C4 7.64 4 10.28 4 13 C7.63 13 11.26 13 15 13 C15 14.32 15 15.64 15 17 C11.7 17 8.4 17 5 17 C5 19.64 5 22.28 5 25 C8.96 25 12.92 25 17 25 C17 26.65 17 28.3 17 30 C11.39 30 5.78 30 0 30 C0 20.1 0 10.2 0 0 Z " fill="#252525" transform="translate(488,834)"/>
<path d="M0 0 C2.0625 2.0625 2.0625 2.0625 3 4 C1.02 4.99 1.02 4.99 -1 6 C-1.33 5.67 -1.66 5.34 -2 5 C-4.33297433 4.95907063 -6.66705225 4.95758277 -9 5 C-9 6.32 -9 7.64 -9 9 C-7.71802734 9.61488281 -7.71802734 9.61488281 -6.41015625 10.2421875 C-4.75306641 11.05042969 -4.75306641 11.05042969 -3.0625 11.875 C-1.96035156 12.40867187 -0.85820312 12.94234375 0.27734375 13.4921875 C3 15 3 15 4 17 C4.57801822 23.24259681 4.57801822 23.24259681 2.1875 26.375 C-1.3362455 28.99263951 -4.64532325 29.38322759 -8.9921875 29.3671875 C-12.3480667 28.7534664 -13.94819377 26.56475779 -16 24 C-15.34 23.34 -14.68 22.68 -14 22 C-12.66082739 22.30903983 -11.32911682 22.65023242 -10 23 C-7.32680103 23.09730035 -4.67628708 23.04460478 -2 23 C-2 21.35 -2 19.7 -2 18 C-2.77085937 17.68546875 -3.54171875 17.3709375 -4.3359375 17.046875 C-5.33882813 16.61890625 -6.34171875 16.1909375 -7.375 15.75 C-8.87160156 15.12351562 -8.87160156 15.12351562 -10.3984375 14.484375 C-13.22174332 12.87347979 -13.96408119 12.01845309 -15 9 C-15.5 6.5625 -15.5 6.5625 -15 4 C-10.55219835 -1.24612502 -6.57746336 -2.19248779 0 0 Z " fill="#121111" transform="translate(304,835)"/>
<path d="M0 0 C2.0625 2.0625 2.0625 2.0625 3 4 C1.02 4.99 1.02 4.99 -1 6 C-1.33 5.67 -1.66 5.34 -2 5 C-4.33297433 4.95907063 -6.66705225 4.95758277 -9 5 C-9 6.32 -9 7.64 -9 9 C-7.71802734 9.61488281 -7.71802734 9.61488281 -6.41015625 10.2421875 C-4.75306641 11.05042969 -4.75306641 11.05042969 -3.0625 11.875 C-1.96035156 12.40867187 -0.85820313 12.94234375 0.27734375 13.4921875 C3 15 3 15 4 17 C4.57801822 23.24259681 4.57801822 23.24259681 2.1875 26.375 C-1.75431596 29.30320614 -5.21181466 29.33021968 -10 29 C-12.9375 27.6875 -12.9375 27.6875 -15 26 C-15 25.01 -15 24.02 -15 23 C-14.01 22.34 -13.02 21.68 -12 21 C-11.34 21.66 -10.68 22.32 -10 23 C-7.31160615 23.26991906 -4.70858064 23.08737357 -2 23 C-2 21.35 -2 19.7 -2 18 C-2.77085937 17.68546875 -3.54171875 17.3709375 -4.3359375 17.046875 C-5.33882812 16.61890625 -6.34171875 16.1909375 -7.375 15.75 C-8.87160156 15.12351562 -8.87160156 15.12351562 -10.3984375 14.484375 C-13.21972258 12.87463276 -14.024989 12.04912532 -15 9 C-14.92125189 5.22009081 -14.408756 3.49817137 -12 0.5625 C-7.8284833 -1.61016495 -4.45717976 -1.38267041 0 0 Z " fill="#0E0E0E" transform="translate(733,835)"/>
<path d="M0 0 C1.32 0 2.64 0 4 0 C3.34695118 3.89017121 2.19461184 7.30443912 0.71484375 10.95703125 C0.04291992 12.62475586 0.04291992 12.62475586 -0.64257812 14.32617188 C-1.11115234 15.47666016 -1.57972656 16.62714844 -2.0625 17.8125 C-2.53494141 18.98232422 -3.00738281 20.15214844 -3.49414062 21.35742188 C-4.65888716 24.23987543 -5.82763234 27.12063965 -7 30 C-8.32 30 -9.64 30 -11 30 C-12.81771173 25.91896703 -14.62826264 21.83479613 -16.4375 17.75 C-16.95376953 16.59113281 -17.47003906 15.43226563 -18.00195312 14.23828125 C-18.49501953 13.12324219 -18.98808594 12.00820313 -19.49609375 10.859375 C-19.95169678 9.83295898 -20.4072998 8.80654297 -20.87670898 7.74902344 C-21.80123547 5.48643526 -22.49868891 3.38434528 -23 1 C-21.35 1 -19.7 1 -18 1 C-17.76289307 1.54003662 -17.52578613 2.08007324 -17.28149414 2.63647461 C-16.21090074 5.07121544 -15.13674971 7.50437032 -14.0625 9.9375 C-13.68931641 10.78763672 -13.31613281 11.63777344 -12.93164062 12.51367188 C-12.57392578 13.32255859 -12.21621094 14.13144531 -11.84765625 14.96484375 C-11.51773682 15.7137085 -11.18781738 16.46257324 -10.84790039 17.23413086 C-10.12883338 18.98162096 -10.12883338 18.98162096 -9 20 C-8.76289307 19.42967041 -8.52578613 18.85934082 -8.28149414 18.27172852 C-7.21104366 15.70091618 -6.13682419 13.1316958 -5.0625 10.5625 C-4.68931641 9.66466797 -4.31613281 8.76683594 -3.93164062 7.84179688 C-3.57392578 6.98779297 -3.21621094 6.13378906 -2.84765625 5.25390625 C-2.51773682 4.46314697 -2.18781738 3.6723877 -1.84790039 2.85766602 C-1 1 -1 1 0 0 Z " fill="#100F0F" transform="translate(455,834)"/>
<path d="M0 0 C7.26 0 14.52 0 22 0 C22 1.32 22 2.64 22 4 C19.03 4 16.06 4 13 4 C13 12.25 13 20.5 13 29 C11.35 29 9.7 29 8 29 C8 20.75 8 12.5 8 4 C5.36 4 2.72 4 0 4 C0 2.68 0 1.36 0 0 Z " fill="#131313" transform="translate(582,835)"/>
<path d="M0 0 C1.65 0 3.3 0 5 0 C5 8.58 5 17.16 5 26 C8.96 26 12.92 26 17 26 C17 27.32 17 28.64 17 30 C11.39 30 5.78 30 0 30 C0 20.1 0 10.2 0 0 Z " fill="#1B1B1A" transform="translate(631,834)"/>
<path d="M0 0 C1.32 0 2.64 0 4 0 C4 8.25 4 16.5 4 25 C7.96 25 11.92 25 16 25 C16 26.32 16 27.64 16 29 C10.72 29 5.44 29 0 29 C0 19.43 0 9.86 0 0 Z " fill="#070706" transform="translate(395,835)"/>
<path d="M0 0 C13.53 0 27.06 0 41 0 C40.34 1.32 39.68 2.64 39 4 C34.26774472 4.02481819 29.53552779 4.04291583 24.80322266 4.05493164 C23.19514302 4.05994375 21.5870679 4.06675519 19.97900391 4.07543945 C17.66047039 4.08764226 15.34199741 4.09325964 13.0234375 4.09765625 C11.95432632 4.10539818 11.95432632 4.10539818 10.86361694 4.11329651 C6.80143571 4.11374755 2.98511894 3.78775607 -1 3 C-0.67 2.01 -0.34 1.02 0 0 Z " fill="#060606" transform="translate(444,156)"/>
<path d="M0 0 C1.65 0.33 3.3 0.66 5 1 C3.88408145 4.12831843 2.75573758 7.25201049 1.625 10.375 C1.14933594 11.70917969 1.14933594 11.70917969 0.6640625 13.0703125 C0.3546875 13.92109375 0.0453125 14.771875 -0.2734375 15.6484375 C-0.55622559 16.43395996 -0.83901367 17.21948242 -1.13037109 18.02880859 C-2 20 -2 20 -4 22 C-4.66 21.67 -5.32 21.34 -6 21 C-5.42381249 15.85404946 -4.25256722 11.44921945 -2.4375 6.5625 C-1.98246094 5.32628906 -1.52742188 4.09007812 -1.05859375 2.81640625 C-0.70925781 1.88699219 -0.35992187 0.95757813 0 0 Z " fill="#0F0F0F" transform="translate(371,646)"/>
<path d="M0 0 C5.94 0 11.88 0 18 0 C17.67 0.66 17.34 1.32 17 2 C19.31 2.33 21.62 2.66 24 3 C24 3.33 24 3.66 24 4 C20.95827281 4.0271045 17.91679003 4.04688964 14.875 4.0625 C14.0190625 4.07087891 13.163125 4.07925781 12.28125 4.08789062 C7.73321589 4.10538306 3.47616836 3.93192358 -1 3 C-0.67 2.01 -0.34 1.02 0 0 Z " fill="#151515" transform="translate(444,156)"/>
<path d="M0 0 C0.99 0.66 1.98 1.32 3 2 C4.9896995 2.39013716 6.99019869 2.73202649 9 3 C8.34 4.32 7.68 5.64 7 7 C7.99 7.33 8.98 7.66 10 8 C5.07008655 8.28999491 1.90748231 8.19703098 -2 5 C-2 2 -2 2 0 0 Z " fill="#181818" transform="translate(720,856)"/>
<path d="M0 0 C4 6 4 6 4 10 C1.36 10 -1.28 10 -4 10 C-3.52449439 8.51965236 -3.04448784 7.04074979 -2.5625 5.5625 C-2.29566406 4.73878906 -2.02882813 3.91507813 -1.75390625 3.06640625 C-1 1 -1 1 0 0 Z " fill="#DDDCDB" transform="translate(682,844)"/>
<path d="M0 0 C3.34905453 3.34905453 3.89470285 5.49378854 5 10 C2.36 10 -0.28 10 -3 10 C-2.01 6.7 -1.02 3.4 0 0 Z " fill="#DEDDDD" transform="translate(545,844)"/>
<path d="M0 0 C2.8203125 -0.29296875 2.8203125 -0.29296875 6.125 -0.1875 C7.76855469 -0.14689453 7.76855469 -0.14689453 9.4453125 -0.10546875 C10.28835938 -0.07066406 11.13140625 -0.03585937 12 0 C12 0.99 12 1.98 12 3 C7.38 3 2.76 3 -2 3 C-1.34 2.01 -0.68 1.02 0 0 Z " fill="#040404" transform="translate(493,860)"/>
<path d="M0 0 C1.875 0.9375 1.875 0.9375 3.875 3.9375 C2.25 5.0625 2.25 5.0625 -0.125 5.9375 C-3.375 5.0625 -3.375 5.0625 -6.125 3.9375 C-2.71630435 -0.0798913 -2.71630435 -0.0798913 0 0 Z " fill="#1A1A1A" transform="translate(732.125,835.0625)"/>
<path d="M0 0 C3.63 0 7.26 0 11 0 C11 0.99 11 1.98 11 3 C7.7 3 4.4 3 1 3 C0.67 2.01 0.34 1.02 0 0 Z " fill="#010101" transform="translate(493,835)"/>
<path d="M0 0 C1.875 0.9375 1.875 0.9375 3.875 3.9375 C2.25 5.0625 2.25 5.0625 -0.125 5.9375 C-3.375 5.0625 -3.375 5.0625 -6.125 3.9375 C-2.71630435 -0.0798913 -2.71630435 -0.0798913 0 0 Z " fill="#1C1C1C" transform="translate(303.125,835.0625)"/>
<path d="M0 0 C2.64 0 5.28 0 8 0 C8 0.99 8 1.98 8 3 C5.69 3 3.38 3 1 3 C0.67 2.01 0.34 1.02 0 0 Z " fill="#010101" transform="translate(495,847)"/>
</svg>
